<svg width="16" height="16" viewBox="0 0 16 16" fill="none" xmlns="http://www.w3.org/2000/svg">
<g id="Mid Star Icon" clip-path="url(#clip0_333_2)">
<path id="StarIcon" d="M7.52447 1.46352C7.67415 1.00287 8.32585 1.00287 8.47553 1.46353L9.79611 5.52786C9.86305 5.73388 10.055 5.87336 10.2716 5.87336L14.5451 5.87336C15.0295 5.87336 15.2309 6.49316 14.839 6.77786L11.3817 9.28976C11.2065 9.41709 11.1331 9.64277 11.2001 9.84878L12.5206 13.9131C12.6703 14.3738 12.1431 14.7568 11.7512 14.4721L8.29389 11.9602C8.11865 11.8329 7.88135 11.8329 7.70611 11.9602L4.24877 14.4721C3.85692 14.7568 3.32968 14.3738 3.47935 13.9131L4.79994 9.84878C4.86687 9.64277 4.79355 9.41709 4.6183 9.28976L1.16097 6.77786C0.769111 6.49316 0.970499 5.87336 1.45486 5.87336L5.72836 5.87336C5.94497 5.87336 6.13695 5.73388 6.20389 5.52786L7.52447 1.46352Z" stroke="black" stroke-linejoin="round"/>
</g>
<defs>
<clipPath id="clip0_333_2">
<rect width="16" height="16" fill="white"/>
</clipPath>
</defs>
</svg>
